<?xml version="1.0" encoding="UTF-8"?>
<svg version="1.1" xmlns="http://www.w3.org/2000/svg" width="1200" height="1200">
<path d="M0 0 C1.47494446 -0.00740823 1.47494446 -0.00740823 2.97968578 -0.01496613 C42.22400177 -0.10566011 73.38217375 14.32247205 104.44726562 37.57788086 C108.98075512 40.95960003 113.616077 44.19196299 118.25585938 47.42553711 C119.10567383 48.01818359 119.95548828 48.61083008 120.83105469 49.22143555 C122.53032639 50.40632611 124.22970682 51.59106076 125.92919922 52.77563477 C129.65126015 55.37536942 133.36076021 57.99273573 137.06835938 60.61303711 C137.76002197 61.10167236 138.45168457 61.59030762 139.16430664 62.09375 C141.92469975 64.04429843 144.68450458 65.99567835 147.44433594 67.94702148 C155.74291224 73.81359406 164.05251799 79.66377693 172.38085938 85.48803711 C180.70487756 91.30927394 189.01004286 97.15657911 197.30419922 103.02026367 C200.82853453 105.51124697 204.35480639 107.99948614 207.88085938 110.48803711 C209.29753506 111.48802433 210.71420173 112.48802432 212.13085938 113.48803711 C212.83210937 113.98303711 213.53335938 114.47803711 214.25585938 114.98803711 C220.63085938 119.48803711 220.63085938 119.48803711 222.75512695 120.98754883 C224.17419895 121.98922754 225.59330713 122.990855 227.01245117 123.99243164 C230.51761212 126.46633206 234.02217453 128.94107077 237.52539062 131.41772461 C245.13095875 136.79308855 252.74862743 142.15058725 260.38085938 147.48803711 C268.70055439 153.30625062 277.00127925 159.150678 285.29101562 165.01147461 C287.43452267 166.52595249 289.57937296 168.03851001 291.72460938 169.55053711 C295.94593684 172.52606395 300.16453365 175.50542727 304.38085938 178.48803711 C304.97431152 178.90762695 305.56776367 179.3272168 306.17919922 179.75952148 C357.88423687 216.36120673 357.88423687 216.36120673 361.9781687 235.75410765 C362.80549172 241.37093195 362.65331977 247.03567766 362.63254166 252.70060062 C362.63463019 254.14221998 362.63759436 255.58383828 362.64135039 257.02545425 C362.64913181 260.98634374 362.64448205 264.9471356 362.63779448 268.90802347 C362.63271956 273.21754696 362.63924155 277.52705551 362.64428115 281.83657688 C362.65150618 289.38961076 362.65128436 296.94261605 362.64618683 304.49565125 C362.63862701 315.72758834 362.64248675 326.95950128 362.64860344 338.19143821 C362.65914151 358.25275798 362.65821935 378.31406503 362.65244562 398.37538602 C362.6474165 415.93564728 362.64610016 433.49590387 362.64849091 451.0561657 C362.64872006 452.8027107 362.64872006 452.8027107 362.64895385 454.58453944 C362.64957652 459.31102741 362.65021332 464.03751538 362.65087337 468.76400335 C362.65699376 513.11912393 362.65144117 557.47423641 362.64067958 601.82935574 C362.63119249 641.23096807 362.63203368 680.63256747 362.64160156 720.03417969 C362.65231396 764.29709046 362.65655535 808.55999407 362.65037704 852.82290596 C362.6497356 857.54300336 362.64910992 862.26310076 362.64849091 866.98319817 C362.64833275 868.1454136 362.6481746 869.30762903 362.64801165 870.50506312 C362.64573757 888.04886955 362.64839574 905.5926708 362.65345001 923.13647652 C362.65917036 943.09185588 362.65773516 963.04722052 362.64688852 983.00259805 C362.64101955 994.16820377 362.64062738 1005.33377758 362.64818087 1016.49938246 C362.6526721 1023.96216709 362.64986281 1031.42492619 362.64117134 1038.88770704 C362.63642369 1043.13684401 362.6347664 1047.3859177 362.6419833 1051.63505263 C362.64849609 1055.50927583 362.64562475 1059.38338026 362.63562198 1063.25759498 C362.63269331 1065.28937496 362.63944757 1067.32116208 362.64673054 1069.35293111 C362.55424474 1092.26803415 358.6285304 1114.72927981 342.26367188 1131.85131836 C318.31015861 1153.76001951 284.37141649 1154.21359022 253.73808289 1156.0279541 C251.38586247 1156.17065929 249.03366628 1156.31376412 246.68149215 1156.45723009 C240.9281037 1156.80711893 235.17447503 1157.15282733 229.4207252 1157.49671793 C222.51171337 1157.90990178 215.60302841 1158.32844017 208.69434883 1158.7471367 C195.90625349 1159.52200414 183.11790729 1160.29265413 170.32941246 1161.06089783 C157.56935596 1161.82744971 144.80941972 1162.59595974 132.04963112 1163.36695862 C131.24993768 1163.41527838 130.45024424 1163.46359813 129.62631767 1163.51338213 C125.56032925 1163.75907083 121.49434289 1164.00479369 117.42835734 1164.25052983 C88.57753757 1165.99412835 59.72646683 1167.73354134 30.87524414 1169.47045898 C3.26705233 1171.13255433 -24.34103662 1172.7963402 -51.94897461 1174.46264648 C-53.64656754 1174.56510338 -55.34416048 1174.66756015 -57.04175343 1174.77001679 C-72.21273309 1175.68565881 -87.38370246 1176.6014713 -102.55466247 1177.51743889 C-112.5499359 1178.1209158 -122.54521408 1178.72431402 -132.54049683 1179.32763672 C-133.76906956 1179.40179656 -133.76906956 1179.40179656 -135.02246194 1179.47745459 C-157.93392842 1180.86042728 -180.84556812 1182.24049071 -203.75738981 1183.61756599 C-217.96594133 1184.47154989 -232.17445525 1185.32615914 -246.38294716 1186.18113431 C-248.68612005 1186.3197209 -250.98929401 1186.45828967 -253.29246798 1186.59685826 C-289.75443558 1188.79074475 -326.2148392 1191.00626081 -362.67121026 1193.2916685 C-369.75866704 1193.73596461 -376.84624827 1194.17821785 -383.93392849 1194.61893463 C-384.89085947 1194.67846008 -385.84779046 1194.73798552 -386.83371935 1194.79931477 C-390.58023628 1195.03236286 -394.32675344 1195.26540671 -398.07328557 1195.49821025 C-407.45209521 1196.0811623 -416.83055306 1196.66861546 -426.20791054 1197.27452087 C-453.62387862 1199.04466804 -481.02413231 1200.81192931 -508.50708008 1200.97827148 C-509.86673938 1200.99450923 -509.86673938 1200.99450923 -511.25386655 1201.01107502 C-527.73173012 1201.16902274 -545.00355819 1199.72284633 -559.61914062 1191.48803711 C-560.45316406 1191.04717773 -561.2871875 1190.60631836 -562.14648438 1190.15209961 C-568.77792959 1186.45320413 -574.16051535 1181.73106139 -579.61914062 1176.48803711 C-580.91851563 1175.25053711 -580.91851563 1175.25053711 -582.24414062 1173.98803711 C-590.16562707 1165.64963032 -597.11665501 1156.73666191 -604.04248047 1147.57006836 C-606.28124264 1144.61370976 -608.54216028 1141.67471438 -610.80664062 1138.73803711 C-611.60457031 1137.70163086 -612.4025 1136.66522461 -613.22460938 1135.59741211 C-614.01480469 1134.57131836 -614.805 1133.54522461 -615.61914062 1132.48803711 C-617.28609355 1130.3215906 -618.95261476 1128.15481214 -620.61914062 1125.98803711 C-621.4524661 1124.90469773 -622.28579942 1123.82136439 -623.11914062 1122.73803711 C-658.11914062 1077.23803711 -693.11914062 1031.73803711 -728.11914062 986.23803711 C-728.53139893 985.70218994 -728.94365723 985.16634277 -729.3684082 984.61425781 C-730.20452886 983.52712143 -731.04030179 982.43971752 -731.87573242 981.35205078 C-733.91374653 978.69957997 -735.95815287 976.05279627 -738.01367188 973.41381836 C-768.42959391 934.25147609 -787.1415292 899.41904454 -787.01074465 849.0896051 C-787.00398488 845.20140873 -787.0147258 841.31325172 -787.02314049 837.42506397 C-787.03547102 830.62258375 -787.03673551 823.82017254 -787.03059006 817.01768494 C-787.02147581 806.90181565 -787.02954959 796.78600986 -787.0408813 786.67014542 C-787.06052514 768.59957915 -787.06290002 750.52904159 -787.0576861 732.45846719 C-787.05312526 716.64316403 -787.05373268 700.82787222 -787.05952644 685.01256943 C-787.06028332 682.88942833 -787.0610393 680.76628722 -787.06179439 678.64314612 C-787.06293961 675.44359399 -787.06408949 672.24404185 -787.06525363 669.04448973 C-787.07595515 639.30681514 -787.08068742 609.56914433 -787.07278347 579.83146858 C-787.0724863 578.71100497 -787.07218912 577.59054136 -787.07188295 576.43612431 C-787.06943412 567.33772422 -787.06682248 558.23932417 -787.06419881 549.14092413 C-787.05409641 513.65195554 -787.06245309 478.16303426 -787.08569336 442.67407227 C-787.11177534 402.78135849 -787.12461146 362.8886732 -787.11750561 322.99595058 C-787.11678957 318.7410125 -787.11611518 314.48607441 -787.11546516 310.23113632 C-787.11529536 309.18349958 -787.11512555 308.13586283 -787.11495059 307.05647952 C-787.11264936 291.25465398 -787.12061614 275.45285491 -787.13375664 259.65103531 C-787.14867683 241.67727224 -787.14949896 223.70357117 -787.13168573 205.72980942 C-787.12213297 195.67766212 -787.12353667 185.62565949 -787.14092042 175.57352189 C-787.15143153 168.85062931 -787.14727917 162.12784659 -787.13144038 155.40496478 C-787.12283248 151.58012424 -787.12032472 147.75556655 -787.1357097 143.93074085 C-787.23418121 117.62782851 -785.6454527 94.11698039 -767.11914062 73.73803711 C-766.29414062 72.99553711 -765.46914063 72.25303711 -764.61914062 71.48803711 C-764.11769531 70.97112305 -763.61625 70.45420898 -763.09960938 69.92163086 C-758.89325632 65.82524782 -754.29554406 62.98350208 -749.11914062 60.30053711 C-748.52190186 59.97980225 -747.92466309 59.65906738 -747.30932617 59.32861328 C-735.69075728 53.57059378 -722.33391275 51.89673836 -709.57409668 50.95970154 C-708.11303392 50.84262978 -706.65205686 50.72448446 -705.19115782 50.60538715 C-701.18472827 50.28294679 -697.17710733 49.97884394 -693.16889644 49.67945585 C-690.5805743 49.48514181 -687.99261365 49.28654979 -685.4047184 49.08663487 C-672.50252845 48.09052532 -659.59751751 47.13459399 -646.69163728 46.18765819 C-640.89617501 45.76187306 -635.10092624 45.33319936 -629.3056488 44.90490723 C-619.26812684 44.16348012 -609.23047634 43.42381502 -599.19273376 42.68538094 C-588.5811268 41.9047229 -577.96959876 41.12300345 -567.35816956 40.3399334 C-566.68945717 40.29058628 -566.02074479 40.24123917 -565.3317684 40.19039668 C-561.93035573 39.93938635 -558.52894445 39.68835714 -555.12753373 39.4373204 C-531.05277551 37.66054484 -506.97785437 35.88598599 -482.90283203 34.11279297 C-460.64878941 32.47371344 -438.39479889 30.83393053 -416.14090669 29.19280994 C-414.02343893 29.03665721 -411.90597085 28.88050879 -409.78850269 28.72436137 C-395.76288891 27.6900715 -381.7372872 26.65561815 -367.71171379 25.62078089 C-360.76175233 25.10799882 -353.81178537 24.59529144 -346.86181641 24.08261108 C-346.17699444 24.03209191 -345.49217247 23.98157273 -344.78659832 23.92952268 C-325.58750641 22.51323076 -306.38818194 21.10013827 -287.18862993 19.69009772 C-274.5312879 18.76050081 -261.87402675 17.82980437 -249.21679688 16.89868164 C-247.92617309 16.80375428 -246.6355493 16.70882692 -245.3058157 16.61102298 C-212.84857199 14.2233164 -180.39437516 11.80072106 -147.94534311 9.30380388 C-141.14000339 8.78024429 -134.3344479 8.25958039 -127.52872467 7.74103069 C-126.13499671 7.63480568 -126.13499671 7.63480568 -124.71311262 7.52643472 C-121.04852269 7.2471672 -117.38392893 6.96795071 -113.71930724 6.68910005 C-104.39179717 5.97920097 -95.06484609 5.26355192 -85.73960876 4.52433968 C-57.17853526 2.26214001 -28.67091829 0.05900995 0 0 Z " fill="#FEFEFE" transform="translate(786.619140625,-0.48803710937499994)"/>
<path d="M0 0 C1.47494446 -0.00740823 1.47494446 -0.00740823 2.97968578 -0.01496613 C42.22400177 -0.10566011 73.38217375 14.32247205 104.44726562 37.57788086 C108.98075512 40.95960003 113.616077 44.19196299 118.25585938 47.42553711 C119.10567383 48.01818359 119.95548828 48.61083008 120.83105469 49.22143555 C122.53032639 50.40632611 124.22970682 51.59106076 125.92919922 52.77563477 C129.65126015 55.37536942 133.36076021 57.99273573 137.06835938 60.61303711 C137.76002197 61.10167236 138.45168457 61.59030762 139.16430664 62.09375 C141.92469975 64.04429843 144.68450458 65.99567835 147.44433594 67.94702148 C155.74291224 73.81359406 164.05251799 79.66377693 172.38085938 85.48803711 C180.70487756 91.30927394 189.01004286 97.15657911 197.30419922 103.02026367 C200.82853453 105.51124697 204.35480639 107.99948614 207.88085938 110.48803711 C209.29753506 111.48802433 210.71420173 112.48802432 212.13085938 113.48803711 C212.83210937 113.98303711 213.53335938 114.47803711 214.25585938 114.98803711 C220.63085938 119.48803711 220.63085938 119.48803711 222.75512695 120.98754883 C224.17419895 121.98922754 225.59330713 122.990855 227.01245117 123.99243164 C230.51761212 126.46633206 234.02217453 128.94107077 237.52539062 131.41772461 C245.13095875 136.79308855 252.74862743 142.15058725 260.38085938 147.48803711 C268.70055439 153.30625062 277.00127925 159.150678 285.29101562 165.01147461 C287.43452267 166.52595249 289.57937296 168.03851001 291.72460938 169.55053711 C295.94593684 172.52606395 300.16453365 175.50542727 304.38085938 178.48803711 C304.97431152 178.90762695 305.56776367 179.3272168 306.17919922 179.75952148 C357.88423687 216.36120673 357.88423687 216.36120673 361.9781687 235.75410765 C362.80549172 241.37093195 362.65331977 247.03567766 362.63254166 252.70060062 C362.63463019 254.14221998 362.63759436 255.58383828 362.64135039 257.02545425 C362.64913181 260.98634374 362.64448205 264.9471356 362.63779448 268.90802347 C362.63271956 273.21754696 362.63924155 277.52705551 362.64428115 281.83657688 C362.65150618 289.38961076 362.65128436 296.94261605 362.64618683 304.49565125 C362.63862701 315.72758834 362.64248675 326.95950128 362.64860344 338.19143821 C362.65914151 358.25275798 362.65821935 378.31406503 362.65244562 398.37538602 C362.6474165 415.93564728 362.64610016 433.49590387 362.64849091 451.0561657 C362.64872006 452.8027107 362.64872006 452.8027107 362.64895385 454.58453944 C362.64957652 459.31102741 362.65021332 464.03751538 362.65087337 468.76400335 C362.65699376 513.11912393 362.65144117 557.47423641 362.64067958 601.82935574 C362.63119249 641.23096807 362.63203368 680.63256747 362.64160156 720.03417969 C362.65231396 764.29709046 362.65655535 808.55999407 362.65037704 852.82290596 C362.6497356 857.54300336 362.64910992 862.26310076 362.64849091 866.98319817 C362.64833275 868.1454136 362.6481746 869.30762903 362.64801165 870.50506312 C362.64573757 888.04886955 362.64839574 905.5926708 362.65345001 923.13647652 C362.65917036 943.09185588 362.65773516 963.04722052 362.64688852 983.00259805 C362.64101955 994.16820377 362.64062738 1005.33377758 362.64818087 1016.49938246 C362.6526721 1023.96216709 362.64986281 1031.42492619 362.64117134 1038.88770704 C362.63642369 1043.13684401 362.6347664 1047.3859177 362.6419833 1051.63505263 C362.64849609 1055.50927583 362.64562475 1059.38338026 362.63562198 1063.25759498 C362.63269331 1065.28937496 362.63944757 1067.32116208 362.64673054 1069.35293111 C362.55424474 1092.26803415 358.6285304 1114.72927981 342.26367188 1131.85131836 C318.31015861 1153.76001951 284.37141649 1154.21359022 253.73808289 1156.0279541 C251.38586247 1156.17065929 249.03366628 1156.31376412 246.68149215 1156.45723009 C240.9281037 1156.80711893 235.17447503 1157.15282733 229.4207252 1157.49671793 C222.51171337 1157.90990178 215.60302841 1158.32844017 208.69434883 1158.7471367 C195.90625349 1159.52200414 183.11790729 1160.29265413 170.32941246 1161.06089783 C157.56935596 1161.82744971 144.80941972 1162.59595974 132.04963112 1163.36695862 C131.24993768 1163.41527838 130.45024424 1163.46359813 129.62631767 1163.51338213 C125.56032925 1163.75907083 121.49434289 1164.00479369 117.42835734 1164.25052983 C88.57753757 1165.99412835 59.72646683 1167.73354134 30.87524414 1169.47045898 C3.26705233 1171.13255433 -24.34103662 1172.7963402 -51.94897461 1174.46264648 C-53.64656754 1174.56510338 -55.34416048 1174.66756015 -57.04175343 1174.77001679 C-72.21273309 1175.68565881 -87.38370246 1176.6014713 -102.55466247 1177.51743889 C-112.5499359 1178.1209158 -122.54521408 1178.72431402 -132.54049683 1179.32763672 C-133.76906956 1179.40179656 -133.76906956 1179.40179656 -135.02246194 1179.47745459 C-157.93392842 1180.86042728 -180.84556812 1182.24049071 -203.75738981 1183.61756599 C-217.96594133 1184.47154989 -232.17445525 1185.32615914 -246.38294716 1186.18113431 C-248.68612005 1186.3197209 -250.98929401 1186.45828967 -253.29246798 1186.59685826 C-289.75443558 1188.79074475 -326.2148392 1191.00626081 -362.67121026 1193.2916685 C-369.75866704 1193.73596461 -376.84624827 1194.17821785 -383.93392849 1194.61893463 C-384.89085947 1194.67846008 -385.84779046 1194.73798552 -386.83371935 1194.79931477 C-390.58023628 1195.03236286 -394.32675344 1195.26540671 -398.07328557 1195.49821025 C-407.45209521 1196.0811623 -416.83055306 1196.66861546 -426.20791054 1197.27452087 C-453.62387862 1199.04466804 -481.02413231 1200.81192931 -508.50708008 1200.97827148 C-509.86673938 1200.99450923 -509.86673938 1200.99450923 -511.25386655 1201.01107502 C-527.73173012 1201.16902274 -545.00355819 1199.72284633 -559.61914062 1191.48803711 C-560.45316406 1191.04717773 -561.2871875 1190.60631836 -562.14648438 1190.15209961 C-568.77792959 1186.45320413 -574.16051535 1181.73106139 -579.61914062 1176.48803711 C-580.91851563 1175.25053711 -580.91851563 1175.25053711 -582.24414062 1173.98803711 C-590.16562707 1165.64963032 -597.11665501 1156.73666191 -604.04248047 1147.57006836 C-606.28124264 1144.61370976 -608.54216028 1141.67471438 -610.80664062 1138.73803711 C-611.60457031 1137.70163086 -612.4025 1136.66522461 -613.22460938 1135.59741211 C-614.01480469 1134.57131836 -614.805 1133.54522461 -615.61914062 1132.48803711 C-617.28609355 1130.3215906 -618.95261476 1128.15481214 -620.61914062 1125.98803711 C-621.4524661 1124.90469773 -622.28579942 1123.82136439 -623.11914062 1122.73803711 C-658.11914062 1077.23803711 -693.11914062 1031.73803711 -728.11914062 986.23803711 C-728.53139893 985.70218994 -728.94365723 985.16634277 -729.3684082 984.61425781 C-730.20452886 983.52712143 -731.04030179 982.43971752 -731.87573242 981.35205078 C-733.91374653 978.69957997 -735.95815287 976.05279627 -738.01367188 973.41381836 C-768.42959391 934.25147609 -787.1415292 899.41904454 -787.01074465 849.0896051 C-787.00398488 845.20140873 -787.0147258 841.31325172 -787.02314049 837.42506397 C-787.03547102 830.62258375 -787.03673551 823.82017254 -787.03059006 817.01768494 C-787.02147581 806.90181565 -787.02954959 796.78600986 -787.0408813 786.67014542 C-787.06052514 768.59957915 -787.06290002 750.52904159 -787.0576861 732.45846719 C-787.05312526 716.64316403 -787.05373268 700.82787222 -787.05952644 685.01256943 C-787.06028332 682.88942833 -787.0610393 680.76628722 -787.06179439 678.64314612 C-787.06293961 675.44359399 -787.06408949 672.24404185 -787.06525363 669.04448973 C-787.07595515 639.30681514 -787.08068742 609.56914433 -787.07278347 579.83146858 C-787.0724863 578.71100497 -787.07218912 577.59054136 -787.07188295 576.43612431 C-787.06943412 567.33772422 -787.06682248 558.23932417 -787.06419881 549.14092413 C-787.05409641 513.65195554 -787.06245309 478.16303426 -787.08569336 442.67407227 C-787.11177534 402.78135849 -787.12461146 362.8886732 -787.11750561 322.99595058 C-787.11678957 318.7410125 -787.11611518 314.48607441 -787.11546516 310.23113632 C-787.11529536 309.18349958 -787.11512555 308.13586283 -787.11495059 307.05647952 C-787.11264936 291.25465398 -787.12061614 275.45285491 -787.13375664 259.65103531 C-787.14867683 241.67727224 -787.14949896 223.70357117 -787.13168573 205.72980942 C-787.12213297 195.67766212 -787.12353667 185.62565949 -787.14092042 175.57352189 C-787.15143153 168.85062931 -787.14727917 162.12784659 -787.13144038 155.40496478 C-787.12283248 151.58012424 -787.12032472 147.75556655 -787.1357097 143.93074085 C-787.23418121 117.62782851 -785.6454527 94.11698039 -767.11914062 73.73803711 C-766.29414062 72.99553711 -765.46914063 72.25303711 -764.61914062 71.48803711 C-764.11769531 70.97112305 -763.61625 70.45420898 -763.09960938 69.92163086 C-758.89325632 65.82524782 -754.29554406 62.98350208 -749.11914062 60.30053711 C-748.52190186 59.97980225 -747.92466309 59.65906738 -747.30932617 59.32861328 C-735.69075728 53.57059378 -722.33391275 51.89673836 -709.57409668 50.95970154 C-708.11303392 50.84262978 -706.65205686 50.72448446 -705.19115782 50.60538715 C-701.18472827 50.28294679 -697.17710733 49.97884394 -693.16889644 49.67945585 C-690.5805743 49.48514181 -687.99261365 49.28654979 -685.4047184 49.08663487 C-672.50252845 48.09052532 -659.59751751 47.13459399 -646.69163728 46.18765819 C-640.89617501 45.76187306 -635.10092624 45.33319936 -629.3056488 44.90490723 C-619.26812684 44.16348012 -609.23047634 43.42381502 -599.19273376 42.68538094 C-588.5811268 41.9047229 -577.96959876 41.12300345 -567.35816956 40.3399334 C-566.68945717 40.29058628 -566.02074479 40.24123917 -565.3317684 40.19039668 C-561.93035573 39.93938635 -558.52894445 39.68835714 -555.12753373 39.4373204 C-531.05277551 37.66054484 -506.97785437 35.88598599 -482.90283203 34.11279297 C-460.64878941 32.47371344 -438.39479889 30.83393053 -416.14090669 29.19280994 C-414.02343893 29.03665721 -411.90597085 28.88050879 -409.78850269 28.72436137 C-395.76288891 27.6900715 -381.7372872 26.65561815 -367.71171379 25.62078089 C-360.76175233 25.10799882 -353.81178537 24.59529144 -346.86181641 24.08261108 C-346.17699444 24.03209191 -345.49217247 23.98157273 -344.78659832 23.92952268 C-325.58750641 22.51323076 -306.38818194 21.10013827 -287.18862993 19.69009772 C-274.5312879 18.76050081 -261.87402675 17.82980437 -249.21679688 16.89868164 C-247.92617309 16.80375428 -246.6355493 16.70882692 -245.3058157 16.61102298 C-212.84857199 14.2233164 -180.39437516 11.80072106 -147.94534311 9.30380388 C-141.14000339 8.78024429 -134.3344479 8.25958039 -127.52872467 7.74103069 C-126.13499671 7.63480568 -126.13499671 7.63480568 -124.71311262 7.52643472 C-121.04852269 7.2471672 -117.38392893 6.96795071 -113.71930724 6.68910005 C-104.39179717 5.97920097 -95.06484609 5.26355192 -85.73960876 4.52433968 C-57.17853526 2.26214001 -28.67091829 0.05900995 0 0 Z M233.7538147 273.96875 C229.49823695 274.50760933 225.26376382 274.75949741 220.97998047 274.94189453 C219.33761571 275.01767945 217.69525122 275.09347011 216.05288696 275.16926575 C215.19502216 275.20767893 214.33715736 275.24609211 213.45329666 275.28566933 C198.7479947 275.94744389 184.04998039 276.70006184 169.35742188 277.60131836 C168.58130428 277.6488859 167.80518669 277.69645344 167.00555038 277.74546242 C163.00440819 277.9913723 159.00341218 278.23956558 155.00250244 278.48922729 C149.77058206 278.81568632 144.53838729 279.13761163 139.30615234 279.45898438 C131.94557434 279.91132563 124.58506074 280.36469456 117.22460938 280.8190918 C100.31883779 281.86246654 83.41274186 282.90030882 66.50585938 283.92553711 C65.6763615 283.97589615 64.84686363 284.02625519 63.99222946 284.07814026 C30.84293908 286.08960164 -2.31552382 287.92408994 -35.47573853 289.74517059 C-63.82797186 291.30269449 -92.17305998 292.89901975 -120.50561523 294.78417969 C-143.64110284 296.32267914 -166.78413073 297.70682191 -189.93164062 299.05053711 C-191.33066179 299.13183302 -191.33066179 299.13183302 -192.75794601 299.21477127 C-215.68736308 300.54648277 -238.6181433 301.82200563 -261.55664062 302.98803711 C-284.3165321 304.14507578 -307.05599019 305.56162399 -329.79786301 307.02313614 C-356.98314819 308.76997893 -384.17201697 310.43653567 -411.36758804 312.01563263 C-414.05810331 312.17198997 -416.74858411 312.32892797 -419.4390564 312.48602295 C-439.7948598 313.67351179 -460.15269393 314.79919202 -480.5177002 315.8177948 C-489.8049006 316.28331563 -499.08774242 316.79128232 -508.36914062 317.36303711 C-509.4171283 317.42618607 -510.46511597 317.48933502 -511.54486084 317.55439758 C-522.62538174 318.28036839 -532.51794237 321.99563894 -540.24414062 330.11303711 C-548.75182875 340.23944466 -548.76987151 352.09928905 -548.7533617 364.69623089 C-548.75571393 365.91888432 -548.75806616 367.14153774 -548.76048967 368.40124127 C-548.76599706 371.79308362 -548.7670533 375.18487411 -548.76621226 378.5767173 C-548.76638225 382.26761718 -548.77229386 385.95850868 -548.77745312 389.64940435 C-548.78676695 396.968931 -548.79069911 404.28845161 -548.79297209 411.60798345 C-548.79593726 420.37565438 -548.80463641 429.14331731 -548.81338637 437.91098403 C-548.83421699 459.09994872 -548.8446977 480.28891479 -548.85351598 501.47788733 C-548.85772375 511.50176281 -548.86294551 521.5256377 -548.86820051 531.54951268 C-548.88608792 565.86357698 -548.90108461 600.17764145 -548.9085207 634.49170971 C-548.90899545 636.64534248 -548.90947134 638.79897524 -548.90994836 640.95260801 C-548.91018474 642.02060857 -548.91042111 643.08860914 -548.91066465 644.18897336 C-548.91186584 649.59994058 -548.9130813 655.01090779 -548.91430664 660.421875 C-548.91454679 661.49569362 -548.91478694 662.56951225 -548.91503437 663.67587083 C-548.92292948 698.5013602 -548.94636713 733.32681554 -548.97886258 768.15229005 C-549.01315802 804.97402416 -549.03287147 841.79573834 -549.03616494 878.61748868 C-549.03658248 882.6592972 -549.03706204 886.7011057 -549.03758812 890.7429142 C-549.03771131 891.73811719 -549.0378345 892.73332019 -549.03796143 893.75868085 C-549.04029356 909.77485682 -549.055954 925.79099324 -549.07642997 941.80715511 C-549.09668248 957.9037972 -549.10216793 974.00039178 -549.09265933 990.09704425 C-549.0874425 999.6591963 -549.09333055 1009.22119019 -549.115194 1018.78331949 C-549.12870053 1025.17348649 -549.1276264 1031.56354462 -549.11479205 1037.95371271 C-549.10789454 1041.59277067 -549.10722846 1045.23152624 -549.12435213 1048.87055721 C-549.14267905 1052.79739154 -549.12981763 1056.72378444 -549.11412525 1060.65063763 C-549.12434746 1061.77093273 -549.13456967 1062.89122784 -549.14510164 1064.04547128 C-549.04356801 1075.69370224 -545.91819954 1087.22125955 -538.61914062 1096.48803711 C-536.1417119 1098.86780786 -533.54863944 1100.70559733 -530.61914062 1102.48803711 C-529.78189453 1103.05458008 -529.78189453 1103.05458008 -528.92773438 1103.63256836 C-519.63736845 1109.18184734 -507.1642197 1109.72309179 -496.59570312 1109.64819336 C-495.74176971 1109.6447139 -494.8878363 1109.64123444 -494.00802612 1109.63764954 C-482.90280969 1109.5351293 -471.82672028 1108.84407562 -460.74414062 1108.17553711 C-458.41123459 1108.03920125 -456.07830774 1107.90322134 -453.74536133 1107.76757812 C-437.81120721 1106.83333806 -421.88400603 1105.80035974 -405.9581604 1104.73498535 C-391.17003295 1103.74767792 -376.38003931 1102.91014419 -361.57495117 1102.22216797 C-346.70206339 1101.52742328 -331.8392805 1100.65925615 -316.97531128 1099.79812622 C-312.22755231 1099.52308625 -307.47972053 1099.24932152 -302.73187351 1098.97580624 C-291.80853279 1098.34652478 -280.88533871 1097.71475037 -269.9622736 1097.08070278 C-264.27177531 1096.75041782 -258.58124319 1096.42074258 -252.890625 1096.0925293 C-223.05475767 1094.39699278 -223.05475767 1094.39699278 -193.23632812 1092.42553711 C-181.87014834 1091.6134885 -170.49873298 1090.96975011 -159.11988831 1090.36949158 C-142.71760591 1089.50300615 -126.31875005 1088.57729812 -109.91992188 1087.64819336 C-108.42255531 1087.56338835 -106.92518873 1087.47858382 -105.42782211 1087.39377975 C-97.72943988 1086.95769924 -90.03109172 1086.5210204 -82.33276367 1086.08398438 C-76.08865904 1085.72950557 -69.84451806 1085.37567561 -63.6003418 1085.02246094 C-32.02183851 1083.23604238 -0.44460744 1081.43615937 31.12663269 1079.52479553 C49.71572931 1078.40038077 68.30835322 1077.34253948 86.90200806 1076.29660034 C96.41989177 1075.76097217 105.93748237 1075.22016018 115.45507812 1074.67944336 C116.3838999 1074.62667803 117.31272167 1074.5739127 118.26968956 1074.51954842 C140.97677454 1073.22918037 163.68228904 1071.92160408 186.38085938 1070.48803711 C187.60194397 1070.41133789 188.82302856 1070.33463867 190.08111572 1070.25561523 C198.21774946 1069.74372992 206.35363703 1069.22159454 214.48886108 1068.68777466 C217.13714499 1068.51419262 219.78558714 1068.34432448 222.43423462 1068.17623901 C226.10705858 1067.94228828 229.77913353 1067.69881705 233.45117188 1067.45288086 C234.54142166 1067.38524536 235.63167145 1067.31760986 236.75495911 1067.2479248 C249.97674088 1066.33693639 263.16339265 1063.24984734 272.40820312 1053.13256836 C281.40022071 1041.077923 282.69365628 1027.41054407 282.63254166 1012.83171082 C282.63544854 1011.60920754 282.63835542 1010.38670426 282.64135039 1009.12715542 C282.64736286 1005.75432603 282.64450581 1002.38172187 282.63779448 999.00890841 C282.63269781 995.33174669 282.6392501 991.65460201 282.64428115 987.97744274 C282.65149025 981.53945936 282.65129418 975.10150954 282.64618683 968.66352463 C282.63861263 959.08991137 282.64249415 949.51632636 282.64860344 939.94271329 C282.6591295 922.84289115 282.6582243 905.74308395 282.65244562 888.64326039 C282.64741344 873.67886918 282.6461016 858.71448344 282.64849091 843.75009155 C282.64864368 842.75726094 282.64879645 841.76443032 282.64895385 840.74151393 C282.64957653 836.71123642 282.65021333 832.68095892 282.65087337 828.65068142 C282.65699064 790.84774208 282.65144561 753.04481225 282.64067958 715.24187438 C282.63118845 681.66018654 282.63203771 648.07851388 282.64160156 614.49682617 C282.65231207 576.76278736 282.65655679 539.02875696 282.65037704 501.29471684 C282.64973561 497.27180545 282.64910992 493.24889406 282.64849091 489.22598267 C282.64833275 488.2354477 282.6481746 487.24491274 282.64801165 486.22436156 C282.64573722 471.26980115 282.6483963 456.31524682 282.65345001 441.36068726 C282.65916798 424.35578008 282.65774001 407.35089019 282.64688852 390.34598517 C282.64101642 380.83030736 282.64063194 371.31466697 282.64818087 361.79899013 C282.65266813 355.4412125 282.64986998 349.08346486 282.64117134 342.72569168 C282.63641831 339.10445363 282.63477765 335.48328991 282.6419833 331.86205423 C282.64967606 327.95611789 282.64182923 324.05029817 282.63254166 320.1443634 C282.63722399 319.02739771 282.64190632 317.91043202 282.64673054 316.75961888 C282.58468667 303.71047269 281.07245506 290.17963279 271.38085938 280.48803711 C263.65359362 274.5759009 255.9038288 273.1461545 246.38085938 273.30053711 C245.24777344 273.30150391 245.24777344 273.30150391 244.09179688 273.30249023 C240.58088309 273.32963648 237.24456387 273.50610113 233.7538147 273.96875 Z " fill="#010101" transform="translate(786.619140625,-0.48803710937499994)"/>
<path d="M0 0 C1.89188379 3.78376759 1.27173719 8.33675862 1.3125 12.5 C1.34150391 13.45648438 1.37050781 14.41296875 1.40039062 15.3984375 C1.4769909 24.09551454 -0.37456528 31.39566201 -6.3125 37.9375 C-11.52393124 43.07322037 -18.50353045 44.53500151 -25.453125 45.82421875 C-26.62618195 46.05090996 -26.62618195 46.05090996 -27.82293701 46.28218079 C-29.46262689 46.59752231 -31.10304605 46.90909331 -32.74414062 47.21704102 C-35.25818817 47.68903728 -37.76979623 48.17261295 -40.28125 48.65820312 C-41.88007986 48.96421368 -43.47903409 49.26957531 -45.078125 49.57421875 C-45.82813782 49.71792404 -46.57815063 49.86162933 -47.35089111 50.00968933 C-50.28263645 50.55771529 -53.0100091 51 -56 51 C-56 220.62 -56 390.24 -56 565 C-83.09342155 577.95772335 -83.09342155 577.95772335 -91.4375 580.875 C-92.46351318 581.2352124 -93.48952637 581.5954248 -94.54663086 581.96655273 C-119.80002867 590.53484211 -148.79579729 595.64913111 -173.75 583.4375 C-194.11765204 571.28408844 -209.11194359 549.08218805 -221.49609375 529.38818359 C-223.09246436 526.8531678 -224.70110047 524.32626857 -226.3125 521.80078125 C-229.2810153 517.14750076 -232.24240233 512.48973835 -235.20166016 507.83056641 C-238.13173772 503.21865773 -241.06607223 498.60945985 -244 494 C-245.16407298 492.17057958 -246.32813546 490.34115249 -247.4921875 488.51171875 C-249.85067786 484.80542555 -252.21015336 481.09976197 -254.5703125 477.39453125 C-260.55356973 467.99976771 -266.52327876 458.5968409 -272.46582031 449.17626953 C-278.02498576 440.3678361 -283.62183707 431.58344039 -289.21777344 422.79833984 C-292.14654813 418.19976238 -295.07317691 413.59981973 -298 409 C-299.16665613 407.16665996 -300.3333228 405.33332663 -301.5 403.5 C-308.5 392.5 -315.5 381.5 -322.5 370.5 C-323.07766113 369.5922583 -323.65532227 368.6845166 -324.25048828 367.74926758 C-325.41556948 365.91840247 -326.58060864 364.0875106 -327.74560547 362.2565918 C-330.68618321 357.63527287 -333.62752092 353.0144408 -336.5703125 348.39453125 C-342.55356973 338.99976771 -348.52327876 329.5968409 -354.46582031 320.17626953 C-360.02498576 311.3678361 -365.62183707 302.58344039 -371.21777344 293.79833984 C-374.14654813 289.19976238 -377.07317691 284.59981973 -380 280 C-381.16665613 278.16665996 -382.3333228 276.33332663 -383.5 274.5 C-385.83333333 270.83333333 -388.16666667 267.16666667 -390.5 263.5 C-391.07766113 262.5922583 -391.65532227 261.6845166 -392.25048828 260.74926758 C-393.41556948 258.91840247 -394.58060864 257.0875106 -395.74560547 255.2565918 C-398.68618321 250.63527287 -401.62752092 246.0144408 -404.5703125 241.39453125 C-411.56510818 230.41160939 -418.53793033 219.41523703 -425.48388672 208.40136719 C-427.11317147 205.82074806 -428.74575289 203.24223495 -430.37890625 200.6640625 C-431.20914307 199.35248169 -431.20914307 199.35248169 -432.05615234 198.0144043 C-433.12216268 196.33051638 -434.18886488 194.6470662 -435.25634766 192.96411133 C-435.73249512 192.21154053 -436.20864258 191.45896973 -436.69921875 190.68359375 C-437.12033936 190.01900146 -437.54145996 189.35440918 -437.9753418 188.66967773 C-439 187 -439 187 -440 185 C-440.33 299.51 -440.66 414.02 -441 532 C-437.7 532.33 -434.4 532.66 -431 533 C-428.92361948 533.40713948 -426.85553255 533.86208878 -424.8046875 534.3828125 C-423.13466675 534.79829346 -423.13466675 534.79829346 -421.4309082 535.22216797 C-420.2574585 535.52010254 -419.08400879 535.81803711 -417.875 536.125 C-415.32492974 536.75832036 -412.77447493 537.38944745 -410.22265625 538.015625 C-409.56345688 538.17759369 -408.90425751 538.33956238 -408.2250824 538.50643921 C-398.88659285 540.78234868 -389.48291946 542.77181231 -380.08349609 544.77783203 C-378.14917725 545.19331299 -378.14917725 545.19331299 -376.17578125 545.6171875 C-375.03020752 545.86065918 -373.88463379 546.10413086 -372.7043457 546.35498047 C-370 547 -370 547 -368 548 C-369.08059604 560.15670549 -374.09505978 569.94489857 -383.28515625 578.00390625 C-398.07725526 589.14007185 -415.70498302 589.98322672 -433.49609375 591 C-434.84463047 591.08091287 -436.19314062 591.16226947 -437.54162598 591.24403381 C-441.1047397 591.45858569 -444.66822632 591.6661422 -448.23185349 591.87196732 C-451.21134067 592.04491966 -454.19057433 592.22204996 -457.16982365 592.39904499 C-474.93492851 593.45347026 -492.70248685 594.43902562 -510.47924805 595.27685547 C-519.76755427 595.7179845 -529.04992686 596.22776539 -538.33203125 596.78515625 C-539.48521347 596.85426712 -540.63839569 596.92337799 -541.82652283 596.99458313 C-547.50181558 597.33589881 -553.17674137 597.68239099 -558.85131836 598.03540039 C-578.69013435 599.25141208 -578.69013435 599.25141208 -588 599 C-590.54389836 591.36830491 -589.76350006 582.59247052 -586.37890625 575.3515625 C-578.73473735 562.31533112 -567.33308386 560.21401676 -553.5 556.4375 C-552.44941406 556.14681641 -551.39882813 555.85613281 -550.31640625 555.55664062 C-543.54902802 553.68703737 -536.77349685 551.84731732 -530 550 C-529.67 398.2 -529.34 246.4 -529 90 C-533.29 90 -537.58 90 -542 90 C-545.45985772 89.83006059 -548.89915863 89.63504888 -552.3515625 89.37890625 C-553.71164932 89.28258156 -553.71164932 89.28258156 -555.09921265 89.18431091 C-556.98638822 89.04951848 -558.87340416 88.91247245 -560.76025391 88.77319336 C-563.65354306 88.56040074 -566.5473877 88.35690255 -569.44140625 88.15429688 C-571.28649775 88.02137936 -573.13155142 87.88793543 -574.9765625 87.75390625 C-575.83899567 87.6934462 -576.70142883 87.63298615 -577.58999634 87.57069397 C-578.38868134 87.51070724 -579.18736633 87.45072052 -580.01025391 87.38891602 C-580.7105069 87.33784195 -581.41075989 87.28676788 -582.13223267 87.23414612 C-584 87 -584 87 -587 86 C-589.84655747 77.46032758 -588.74860329 66.61756454 -585.26171875 58.45703125 C-579.42529723 47.0913683 -571.85781141 39.08641844 -560 34 C-553.52176864 32.08177282 -547.32854797 31.5264045 -540.59765625 31.18359375 C-539.52051865 31.12220718 -538.44338104 31.06082062 -537.33360291 30.99757385 C-533.9102597 30.80365936 -530.48646531 30.62006968 -527.0625 30.4375 C-523.64223573 30.24953627 -520.22211249 30.05936044 -516.80210876 29.86671448 C-514.68083206 29.7478117 -512.55938678 29.63186606 -510.4377594 29.51939392 C-505.23979038 29.23386914 -500.08952416 28.82883303 -494.91990662 28.21644592 C-492.56248551 27.95067561 -490.21394543 27.81135115 -487.84375 27.71875 C-486.96589844 27.68136719 -486.08804688 27.64398438 -485.18359375 27.60546875 C-483.39453125 27.53515625 -481.60546875 27.46484375 -479.81640625 27.39453125 C-478.93855469 27.35714844 -478.06070313 27.31976563 -477.15625 27.28125 C-476.38087891 27.25095703 -475.60550781 27.22066406 -474.80664062 27.18945312 C-472.48527231 27.03275673 -470.20573262 26.79975703 -467.89648438 26.52734375 C-462.44182065 25.90429981 -456.98014361 25.58952974 -451.5 25.28125 C-449.88641602 25.18704773 -449.88641602 25.18704773 -448.24023438 25.09094238 C-443.67598053 24.82455075 -439.11141684 24.56364873 -434.546875 24.30224609 C-431.19780309 24.10965534 -427.84890247 23.91426149 -424.5 23.71875 C-422.97149414 23.6327655 -422.97149414 23.6327655 -421.41210938 23.54504395 C-415.57933792 23.20420225 -409.8014686 22.6840574 -404 22 C-399.12884327 21.50369723 -394.26051729 21.13573372 -389.375 20.8125 C-388.09109375 20.68552734 -386.8071875 20.55855469 -385.484375 20.42773438 C-376.31178593 19.89124236 -376.31178593 19.89124236 -372.79003906 22.86791992 C-370.9375089 25.48734384 -369.470498 28.15003482 -368 31 C-366.87268133 32.74517288 -365.7266093 34.47836858 -364.5625 36.19921875 C-363.37329519 38.0275381 -362.18586123 39.85701022 -361 41.6875 C-359.6771291 43.722686 -358.3542111 45.75784139 -357.03125 47.79296875 C-356.36222656 48.82341309 -355.69320312 49.85385742 -355.00390625 50.91552734 C-351.8426636 55.78140693 -348.67104667 60.6405064 -345.5 65.5 C-344.24733617 67.42053401 -342.99473211 69.34110699 -341.7421875 71.26171875 C-340.8135791 72.68556885 -340.8135791 72.68556885 -339.86621094 74.13818359 C-338.01730871 76.97345726 -336.16876296 79.80896304 -334.3203125 82.64453125 C-327.00113797 93.87140065 -319.67240955 105.09196829 -312.33642578 116.30786133 C-307.10554833 124.30631391 -301.88307984 132.31021156 -296.6640625 140.31640625 C-291.9488937 147.54832126 -287.22568803 154.77495519 -282.5 162 C-274.04320699 174.92992601 -265.60293494 187.87057745 -257.16601562 200.81347656 C-249.23200797 212.9842949 -241.2890482 225.14919725 -233.33642578 237.30786133 C-228.10554833 245.30631391 -222.88307984 253.31021156 -217.6640625 261.31640625 C-212.9488937 268.54832126 -208.22568803 275.77495519 -203.5 283 C-195.04320699 295.92992601 -186.60293494 308.87057745 -178.16601562 321.81347656 C-176.3191522 324.64657684 -174.47212067 327.47956743 -172.625 330.3125 C-172.0155957 331.24723145 -171.40619141 332.18196289 -170.77832031 333.14501953 C-167.38765395 338.34421816 -163.99303626 343.54080833 -160.59375 348.734375 C-160.22091888 349.30411545 -159.84808777 349.8738559 -159.46395874 350.46086121 C-157.66760461 353.20590346 -155.87071171 355.95058761 -154.07275391 358.69458008 C-149.00535093 366.4365487 -144.00408809 374.21586297 -139 382 C-138.67 276.4 -138.34 170.8 -138 62 C-141.63 62 -145.26 62 -149 62 C-151.49743663 61.78609413 -153.99147572 61.52286268 -156.4765625 61.1953125 C-157.45101067 61.07020294 -157.45101067 61.07020294 -158.44514465 60.94256592 C-160.5060187 60.67662681 -162.56547557 60.40117809 -164.625 60.125 C-166.75936006 59.84527737 -168.89396797 59.56750743 -171.02861023 59.28994751 C-172.42448111 59.10830657 -173.82024524 58.9258432 -175.21589661 58.74252319 C-179.08395194 58.23696647 -182.95277746 57.76999628 -186.83203125 57.359375 C-187.63237793 57.27413574 -188.43272461 57.18889648 -189.25732422 57.10107422 C-191.27378725 56.89197626 -193.29115894 56.69169165 -195.30859375 56.4921875 C-196.19675781 56.32976562 -197.08492187 56.16734375 -198 56 C-200.56860043 50.86279913 -199.54488708 43.4099577 -198.31640625 37.9765625 C-194.89049445 27.82676571 -188.22498988 18.93755815 -178.69921875 13.74609375 C-176.48552506 12.73783998 -174.28665938 11.82901225 -172 11 C-170.63795692 10.49690308 -170.63795692 10.49690308 -169.24839783 9.98364258 C-165.97328918 8.99191174 -163.16156413 8.6313332 -159.75219727 8.4375 C-158.53133926 8.36402344 -157.31048126 8.29054688 -156.05262756 8.21484375 C-154.07944801 8.10849609 -154.07944801 8.10849609 -152.06640625 8 C-150.6694665 7.91871101 -149.27257069 7.83666375 -147.87571716 7.75390625 C-144.18415113 7.53710172 -140.49210758 7.32992998 -136.79986572 7.125 C-133.16380305 6.92185582 -129.5281978 6.71090146 -125.89257812 6.5 C-121.56460003 6.24915628 -117.23660498 5.99872148 -112.90838623 5.75205994 C-103.12982732 5.19312155 -93.35553417 4.58240915 -83.58203125 3.94140625 C-72.09978234 3.18912796 -60.61731851 2.513748 -49.125 1.9375 C-46.0442223 1.78088892 -42.96351216 1.62298145 -39.8828125 1.46484375 C-39.14528244 1.42736526 -38.40775238 1.38988678 -37.64787292 1.35127258 C-33.8882104 1.15811518 -30.12993324 0.95112635 -26.37231445 0.72143555 C-25.61671234 0.6753566 -24.86111023 0.62927765 -24.08261108 0.58180237 C-22.66510733 0.49431723 -21.24771494 0.40499662 -19.83047485 0.31333923 C-13.21646906 -0.09614528 -6.62462102 -0.09448746 0 0 Z " fill="#000000" transform="translate(953,402)"/>
<path d="M0 0 C1.60045915 -0.00914628 3.20089964 -0.02307886 4.80126953 -0.04229736 C18.97754648 -0.19362349 32.4966406 1.29775443 45.81542969 6.48605347 C46.60715576 6.78793579 47.39888184 7.08981812 48.21459961 7.40084839 C60.71661303 12.30288421 71.61262974 18.89701878 82.3515625 26.89181519 C85.10708155 28.93050301 87.89403437 30.92463119 90.6784668 32.92355347 C97.82580463 38.05821948 104.92503299 43.25620314 112.00292969 48.48605347 C118.52017267 53.30140403 125.07406243 58.05719791 131.67871094 62.75167847 C135.80182543 65.6839808 139.90258163 68.64703623 144.00292969 71.61105347 C144.760979 72.1589856 145.51902832 72.70691772 146.30004883 73.27145386 C147.84626066 74.38927799 149.39240282 75.5071985 150.93847656 76.62521362 C153.96257787 78.81162611 156.98779808 80.9964868 160.01318359 83.18112183 C161.50518288 84.25856844 162.99704509 85.33620488 164.48876953 86.41403198 C168.31136552 89.17581385 172.13591526 91.93482396 175.96386719 94.68917847 C179.72387024 97.39517609 183.47670359 100.11086583 187.22558594 102.83224487 C189.1141072 104.19814789 191.01074013 105.55196027 192.90917969 106.90402222 C193.97136719 107.67359253 195.03355469 108.44316284 196.12792969 109.23605347 C197.4853125 110.20865112 197.4853125 110.20865112 198.87011719 111.20089722 C202.32815615 114.24510528 204.99526123 117.40898477 205.62792969 122.04855347 C205.25292969 124.29855347 205.25292969 124.29855347 203.25292969 126.29855347 C200.37430551 126.67532486 197.57114134 126.93447485 194.67871094 127.11495972 C193.81151428 127.17602905 192.94431763 127.23709839 192.05084229 127.30001831 C189.22292151 127.49637282 186.39430611 127.6790299 183.56542969 127.86105347 C181.62195532 127.9926381 179.67851449 128.1247189 177.73510742 128.2572937 C167.2061241 128.96516221 156.67964566 129.57254377 146.13354492 129.95944214 C139.6159702 130.20741619 133.12948055 130.65863428 126.62792969 131.17355347 C111.54845609 132.36124598 96.44830827 133.15911492 81.34603882 133.9937439 C67.08887906 134.78265121 52.8431567 135.62701812 38.60205078 136.66744995 C30.10557647 137.27545334 21.60891868 137.67558368 13.09545898 137.95724487 C12.19351807 137.98866577 11.29157715 138.02008667 10.36230469 138.05245972 C9.58854492 138.07638794 8.81478516 138.10031616 8.01757812 138.12496948 C5.66840675 138.27246691 3.36564093 138.50759352 1.02929688 138.78268433 C-3.73580827 139.32862311 -8.48801168 139.59200383 -13.27832031 139.79855347 C-14.15427856 139.83915894 -15.03023682 139.8797644 -15.93273926 139.92160034 C-19.63677248 140.09321323 -23.34109823 140.25808429 -27.04541016 140.42355347 C-29.76899341 140.54619855 -32.49240193 140.67230809 -35.21582031 140.79855347 C-36.03796021 140.83400269 -36.8601001 140.8694519 -37.70715332 140.90597534 C-42.41930726 141.12479933 -47.07194867 141.52628375 -51.75653076 142.07788086 C-54.14699316 142.34288919 -56.52311051 142.47151843 -58.92675781 142.54464722 C-69.3903598 142.88730545 -79.81425424 143.40741176 -90.25097656 144.23605347 C-104.75928961 145.34804399 -119.27809315 146.12509788 -133.80957031 146.86105347 C-137.51981634 147.04970184 -141.23000174 147.23930396 -144.94004822 147.43183899 C-147.21610352 147.54992139 -149.49227171 147.66585687 -151.76856995 147.77915955 C-157.35710136 148.06869155 -162.90448568 148.48396542 -168.46916199 149.07313538 C-171.83078705 149.40579631 -175.19346324 149.57102714 -178.56738281 149.72824097 C-180.06242332 149.80040921 -181.55745889 149.87267987 -183.05249023 149.94503784 C-184.22574356 150.00050781 -184.22574356 150.00050781 -185.42269897 150.05709839 C-202.62306836 150.87488797 -219.807228 151.89658318 -236.99179077 152.9937439 C-252.1896016 153.96365176 -267.38894016 154.86565662 -282.59741211 155.65206909 C-283.95849617 155.72433326 -285.31958016 155.7965988 -286.68066406 155.86886597 C-287.83622803 155.92832397 -288.99179199 155.98778198 -290.18237305 156.04904175 C-292.69177643 156.22468795 -295.19671376 156.47132005 -297.69458008 156.76901245 C-304.65577761 157.56842828 -311.65880512 157.83872723 -318.65332031 158.20089722 C-320.22051356 158.28409664 -321.78769265 158.36756299 -323.3548584 158.45127869 C-327.48483075 158.67134549 -331.61494858 158.88854007 -335.74511719 159.10488892 C-343.04802668 159.48774295 -350.35072277 159.87464185 -357.65332031 160.26339722 C-358.45342592 160.3059753 -359.25353153 160.34855339 -360.07788277 160.39242172 C-383.13217859 161.62229634 -406.17646692 163.00800033 -429.20755005 164.61773682 C-431.96002851 164.80900894 -434.71275793 164.99627086 -437.46557617 165.18258667 C-448.82272881 165.95033022 -448.82272881 165.95033022 -460.17514038 166.78442383 C-476.27499282 168.01213662 -492.29374442 168.50143372 -508.43457031 168.54855347 C-509.35480988 168.5538205 -510.27504944 168.55908752 -511.22317505 168.56451416 C-540.01125833 168.69267641 -560.69452712 160.44608041 -582.74707031 142.29855347 C-584.06138411 141.22857146 -585.3765089 140.15958499 -586.69238281 139.09152222 C-588.72333248 137.44266398 -590.75370217 135.79314658 -592.78125 134.1401062 C-599.36901126 128.77262503 -606.04881622 123.52701924 -612.74707031 118.29855347 C-620.82599528 111.99237547 -628.83918934 105.61731956 -636.78125 99.13937378 C-641.11409042 95.61069514 -645.4747438 92.12151354 -649.87207031 88.67355347 C-650.43603516 88.23043823 -651 87.787323 -651.58105469 87.33078003 C-654.54609937 85.00595404 -657.52499335 82.70118479 -660.52050781 80.41574097 C-675.96148554 68.58660585 -675.96148554 68.58660585 -677.23144531 63.27120972 C-677.46302233 59.81685254 -676.95506823 57.61832597 -675.07519531 54.72824097 C-672.46329431 52.00239798 -670.37058005 50.91947077 -666.87207031 49.54855347 C-665.86402344 49.14120972 -664.85597656 48.73386597 -663.81738281 48.31417847 C-658.50721779 46.55763533 -653.26480127 46.1403999 -647.70019531 45.86886597 C-646.30174419 45.79686448 -644.90330729 45.72458632 -643.50488281 45.65206909 C-642.77172852 45.61508911 -642.03857422 45.57810913 -641.28320312 45.54000854 C-628.40964894 44.88423266 -615.58065955 44.00353933 -602.74707031 42.79855347 C-589.17434207 41.52416753 -575.60419839 40.63176946 -561.98925781 39.94503784 C-561.28021301 39.90826935 -560.57116821 39.87150085 -559.84063721 39.83361816 C-557.92777947 39.73513163 -556.01467762 39.64141873 -554.1015625 39.54806519 C-550.82757479 39.35897224 -550.82757479 39.35897224 -547.94921875 38.81477356 C-544.67584158 38.28707064 -541.466253 38.00721085 -538.15820312 37.78952026 C-536.20596077 37.65862503 -536.20596077 37.65862503 -534.21427917 37.52508545 C-533.52166677 37.48004757 -532.82905437 37.43500969 -532.11545372 37.38860703 C-529.90171627 37.244619 -527.68824619 37.09699608 -525.47480774 36.94848633 C-522.30036132 36.73582434 -519.12582406 36.52460476 -515.95120239 36.3145752 C-507.62605818 35.76328587 -499.30165135 35.20113281 -490.97753906 34.63449097 C-490.14778502 34.57803469 -489.31803097 34.52157841 -488.46313286 34.46341133 C-473.73558705 33.45861002 -459.02116906 32.32864939 -444.30957031 31.11105347 C-428.01257246 29.76486494 -411.72273254 28.63328228 -395.39550781 27.73214722 C-387.59080049 27.29988343 -379.7943273 26.78567119 -371.99707031 26.23605347 C-370.84158691 26.15661499 -369.68610352 26.07717651 -368.49560547 25.99533081 C-366.89531494 25.88052368 -366.89531494 25.88052368 -365.26269531 25.76339722 C-364.3374707 25.69757446 -363.41224609 25.63175171 -362.45898438 25.56393433 C-359.71568982 25.3300414 -359.71568982 25.3300414 -356.90429688 24.80075073 C-353.18078955 24.20847927 -349.47603259 23.98477592 -345.71582031 23.79855347 C-344.96167847 23.757948 -344.20753662 23.71734253 -343.43054199 23.67550659 C-340.22852647 23.5032038 -337.02611979 23.33873817 -333.82373047 23.17355347 C-331.47510757 23.05127414 -329.12672201 22.92499911 -326.77832031 22.79855347 C-325.70463196 22.74537964 -325.70463196 22.74537964 -324.60925293 22.69113159 C-320.58523036 22.47401578 -316.71599002 21.96895678 -312.74707031 21.29855347 C-310.42368423 21.12408612 -308.09760759 20.98361938 -305.77050781 20.86886597 C-304.38206862 20.79682082 -302.99364141 20.72454448 -301.60522461 20.65206909 C-300.87620941 20.61508911 -300.14719421 20.57810913 -299.39608765 20.54000854 C-286.05349638 19.85671889 -272.74455925 18.95180056 -259.43457031 17.79855347 C-245.01867906 16.55412416 -230.60049852 15.51004679 -216.16015625 14.584198 C-207.89175347 14.05130071 -199.62488307 13.49515459 -191.3581543 12.9369812 C-188.42867092 12.73986201 -185.4990109 12.54553559 -182.56933594 12.35128784 C-180.74575758 12.22839889 -178.9221894 12.10535881 -177.09863281 11.98214722 C-175.85981857 11.90098915 -175.85981857 11.90098915 -174.59597778 11.81819153 C-170.9099428 11.56633873 -167.25176859 11.26062989 -163.58740234 10.78488159 C-160.03472527 10.33498123 -156.5240306 10.04364813 -152.95019531 9.83370972 C-151.67450684 9.75692993 -150.39881836 9.68015015 -149.08447266 9.6010437 C-148.4177655 9.56195892 -147.75105835 9.52287415 -147.06414795 9.48260498 C-143.51795699 9.27407635 -139.97237747 9.05561071 -136.42675781 8.83761597 C-135.70561798 8.79340012 -134.98447815 8.74918427 -134.2414856 8.70362854 C-126.86590807 8.24895129 -119.49354655 7.75327264 -112.12207031 7.23605347 C-110.96223633 7.15685669 -109.80240234 7.07765991 -108.60742188 6.99606323 C-107.52686523 6.91928345 -106.44630859 6.84250366 -105.33300781 6.76339722 C-104.39505371 6.69757446 -103.45709961 6.63175171 -102.49072266 6.56393433 C-99.72012619 6.33129824 -99.72012619 6.33129824 -96.89990234 5.80075073 C-93.17792323 5.20789716 -89.47460023 4.98470498 -85.71582031 4.79855347 C-84.96167847 4.757948 -84.20753662 4.71734253 -83.43054199 4.67550659 C-80.22852647 4.5032038 -77.02611979 4.33873817 -73.82373047 4.17355347 C-71.47510757 4.05127414 -69.12672201 3.92499911 -66.77832031 3.79855347 C-66.06252808 3.76310425 -65.34673584 3.72765503 -64.60925293 3.69113159 C-60.58548008 3.47402925 -56.71460073 2.97865431 -52.74707031 2.29855347 C-35.23340148 0.71738618 -17.57926462 0.09633596 0 0 Z " fill="#FEFEFE" transform="translate(779.7470703125,67.70144653320313)"/>
</svg>
